<svg width="788" height="788" viewBox="0 0 788 788" fill="none" xmlns="http://www.w3.org/2000/svg">
<g filter="url(#filter0_d_5_14)">
<rect x="24" y="20" width="740" height="740" rx="68" stroke="black" stroke-width="40" shape-rendering="crispEdges"/>
<path d="M168.2 249H216.2V529H168.2V249ZM258.6 529H197.4V484.6H257.4C271.267 484.6 284.067 482.6 295.8 478.6C307.533 474.6 317.667 468.6 326.2 460.6C335 452.6 341.8 442.6 346.6 430.6C351.667 418.6 354.2 404.733 354.2 389C354.2 373.267 351.667 359.4 346.6 347.4C341.8 335.4 335 325.4 326.2 317.4C317.667 309.4 307.533 303.4 295.8 299.4C284.067 295.4 271.267 293.4 257.4 293.4H197.4V249H258.6C287.133 249 312.2 254.867 333.8 266.6C355.4 278.067 372.2 294.333 384.2 315.4C396.467 336.2 402.6 360.733 402.6 389C402.6 417.267 396.467 441.933 384.2 463C372.2 483.8 355.4 500.067 333.8 511.8C312.2 523.267 287.133 529 258.6 529ZM467.069 439C473.202 449.667 479.735 459.133 486.669 467.4C493.869 475.4 501.735 481.667 510.269 486.2C518.802 490.467 528.402 492.6 539.069 492.6C551.869 492.6 562.269 489.133 570.269 482.2C578.269 475.267 582.269 466.333 582.269 455.4C582.269 445 579.735 436.733 574.669 430.6C569.602 424.2 562.535 418.867 553.469 414.6C544.669 410.067 534.402 405.667 522.669 401.4C515.735 399 508.002 395.8 499.469 391.8C490.935 387.533 482.802 382.333 475.069 376.2C467.335 369.8 460.935 362.067 455.869 353C450.802 343.667 448.269 332.467 448.269 319.4C448.269 304.467 452.135 291.4 459.869 280.2C467.602 268.733 478.002 259.933 491.069 253.8C504.402 247.4 519.469 244.2 536.269 244.2C552.802 244.2 567.202 247.133 579.469 253C591.735 258.867 602.002 266.333 610.269 275.4C618.802 284.467 625.469 293.933 630.269 303.8L591.869 325.4C588.402 318.467 584.002 312.067 578.669 306.2C573.335 300.067 567.069 295.267 559.869 291.8C552.935 288.067 544.802 286.2 535.469 286.2C522.402 286.2 512.802 289.267 506.669 295.4C500.535 301.267 497.469 308.2 497.469 316.2C497.469 323.4 499.602 329.933 503.869 335.8C508.402 341.4 515.335 346.733 524.669 351.8C534.002 356.867 546.135 362.067 561.069 367.4C569.335 370.333 577.602 374.067 585.869 378.6C594.402 383.133 602.135 388.867 609.069 395.8C616.002 402.467 621.469 410.333 625.469 419.4C629.735 428.467 631.869 439.133 631.869 451.4C631.869 464.467 629.335 476.2 624.269 486.6C619.202 497 612.269 505.8 603.469 513C594.669 519.933 584.669 525.267 573.469 529C562.535 533 551.069 535 539.069 535C522.535 535 507.202 531.8 493.069 525.4C479.202 518.733 467.069 509.933 456.669 499C446.269 488.067 438.002 476.2 431.869 463.4L467.069 439Z" fill="black"/>
</g>
<defs>
<filter id="filter0_d_5_14" x="0" y="0" width="788" height="788" filterUnits="userSpaceOnUse" color-interpolation-filters="sRGB">
<feFlood flood-opacity="0" result="BackgroundImageFix"/>
<feColorMatrix in="SourceAlpha" type="matrix" values="0 0 0 0 0 0 0 0 0 0 0 0 0 0 0 0 0 0 127 0" result="hardAlpha"/>
<feOffset dy="4"/>
<feGaussianBlur stdDeviation="2"/>
<feComposite in2="hardAlpha" operator="out"/>
<feColorMatrix type="matrix" values="0 0 0 0 0 0 0 0 0 0 0 0 0 0 0 0 0 0 0.25 0"/>
<feBlend mode="normal" in2="BackgroundImageFix" result="effect1_dropShadow_5_14"/>
<feBlend mode="normal" in="SourceGraphic" in2="effect1_dropShadow_5_14" result="shape"/>
</filter>
</defs>
</svg>
